#!OML:ASF F:\VICON\USERDATA\INSTALL\rory3\rory3.ASF
:FULLY-SPECIFIED
:DEGREES
91
root 2.06571 18.3733 44.7615 -5.6694 3.8309 -1.3354
lowerback 17.5111 -1.62532 -4.53366
upperback -1.28492 -2.6913 3.94304
thorax -10.8877 -0.862052 7.68321
lowerneck -8.03657 -5.41079 -4.61742
upperneck 35.2339 -6.81453 -0.950919
head 13.3117 -3.75445 -0.489951
rclavicle 7.92033e-015 -9.54166e-015
rhumerus -15.0569 -73.0744 -33.4647
rradius 48.6408
rwrist -69.043
rhand -14.3629 -6.94206
rfingers 7.12502
rthumb 11.7792 -36.5908
lclavicle 7.92033e-015 -9.54166e-015
lhumerus -50.012 12.9675 70.3371
lradius 46.2813
lwrist 8.94049
lhand -6.72345 53.6593
lfingers 7.12502
lthumb 19.1368 82.7378
rfemur -6.68247 3.32495 20.4291
rtibia 30.537
rfoot -15.7378 -17.7287
rtoes 11.531
lfemur -4.86645 -6.4162 -18.545
ltibia 27.119
lfoot -11.9175 7.45087
ltoes -16.1719
92
root 2.0804 18.3619 44.7407 -5.64656 4.02398 -0.596044
lowerback 17.351 -1.66136 -4.84342
upperback -1.25348 -2.82907 3.67441
thorax -10.7369 -0.927818 7.58001
lowerneck -7.4271 -5.77478 -5.05638
upperneck 35.3769 -7.29737 -0.96085
head 13.2804 -4.03083 -0.467935
rclavicle 1.44119e-014 -1.51076e-014
rhumerus -15.237 -73.5048 -33.4562
rradius 48.7438
rwrist -68.6586
rhand -15.187 -3.95365
rfingers 7.12502
rthumb 10.9844 -33.6463
lclavicle 1.44119e-014 -1.51076e-014
lhumerus -50.042 12.7813 70.4733
lradius 46.4502
lwrist 8.99725
lhand -6.98823 53.5826
lfingers 7.12502
lthumb 18.8821 82.6861
rfemur -6.91275 2.54311 19.3709
rtibia 30.9468
rfoot -15.9851 -16.9287
rtoes 11.8541
lfemur -4.88012 -6.36237 -19.4528
ltibia 27.0837
lfoot -11.7934 7.36783
ltoes -16.1558
93
root 2.06634 18.3595 44.665 -5.4638 3.48846 -1.45674
lowerback 17.6218 -1.59868 -3.99184
upperback -1.37168 -2.53688 3.98831
thorax -11.0943 -0.807182 7.39355
lowerneck -6.38324 -6.07205 -5.68353
upperneck 35.1895 -7.71189 -0.837901
head 13.0311 -4.28947 -0.325733
rclavicle -5.11249e-015 1.59028e-015
rhumerus -14.6121 -74.5821 -34.215
rradius 48.9672
rwrist -67.5127
rhand -14.166 -5.3985
rfingers 7.12502
rthumb 11.969 -35.0363
lclavicle -5.11249e-015 1.59028e-015
lhumerus -50.1122 12.7721 70.5949
lradius 46.6059
lwrist 8.94406
lhand -7.23897 53.4355
lfingers 7.12502
lthumb 18.641 82.5623
rfemur -7.70562 3.20577 20.4933
rtibia 31.1798
rfoot -15.7124 -17.262
rtoes 11.6937
lfemur -5.65147 -5.93607 -18.2676
ltibia 27.3998
lfoot -11.5954 7.27707
ltoes -16.0578
94
root 2.0676 18.3599 44.6946 -5.99151 3.40648 -0.206241
lowerback 17.0986 -1.46851 -5.08395
upperback -0.846567 -2.61859 3.59938
thorax -10.1627 -0.857229 7.5424
lowerneck -5.71471 -6.39672 -6.06171
upperneck 34.953 -8.18949 -0.740527
head 12.832 -4.5432 -0.255202
rclavicle 7.47384e-015 1.98785e-014
rhumerus -14.9987 -73.5458 -34.2518
rradius 49.3902
rwrist -68.148
rhand -14.3622 -6.97725
rfingers 7.12502
rthumb 11.7799 -36.626
lclavicle 7.47384e-015 1.98785e-014
lhumerus -49.8409 12.629 70.7025
lradius 46.7307
lwrist 9.0647
lhand -7.18855 53.3672
lfingers 7.12502
lthumb 18.6895 82.4894
rfemur -7.10679 2.7951 19.0115
rtibia 31.5401
rfoot -15.9333 -16.6162
rtoes 11.1785
lfemur -4.76211 -5.70891 -19.79
ltibia 27.3491
lfoot -11.7369 7.42558
ltoes -16.3078
95
root 2.04903 18.3595 44.6357 -5.8115 3.04074 -1.25194
lowerback 17.5169 -1.52039 -4.18911
upperback -0.946969 -2.4755 3.96934
thorax -10.5572 -0.803553 7.43841
lowerneck -5.66668 -6.71981 -6.15737
upperneck 35.1873 -8.56338 -1.0503
head 12.9273 -4.76097 -0.412677
rclavicle -2.44039e-014 -8.74653e-015
rhumerus -15.8096 -71.1029 -34.0195
rradius 49.7719
rwrist -69.6607
rhand -15.8612 -3.09107
rfingers 7.12502
rthumb 10.3341 -32.8172
lclavicle -2.44039e-014 -8.74653e-015
lhumerus -49.8126 12.8219 70.6369
lradius 46.6853
lwrist 8.97366
lhand -7.23817 53.0551
lfingers 7.12502
lthumb 18.6417 82.1819
rfemur -7.76737 3.5141 20.3583
rtibia 31.7163
rfoot -15.7833 -17.0258
rtoes 12.6292
lfemur -5.39614 -5.35094 -18.4199
ltibia 27.5052
lfoot -11.3315 7.31938
ltoes -17.0645
96
root 2.06262 18.3541 44.6492 -6.05087 3.17496 -0.419887
lowerback 17.5068 -1.6339 -4.78632
upperback -0.688378 -2.77612 3.74295
thorax -10.1983 -0.945717 7.58857
lowerneck -5.94913 -7.06701 -6.33862
upperneck 35.478 -8.94181 -1.34634
head 13.1237 -4.9865 -0.570764
rclavicle -2.60222e-014 3.89618e-014
rhumerus -14.8521 -70.4311 -35.257
rradius 49.9201
rwrist -69.6608
rhand -17.4481 -0.196678
rfingers 7.12502
rthumb 8.80294 -29.9931
lclavicle -2.60222e-014 3.89618e-014
lhumerus -49.6617 13.1032 70.5755
lradius 46.603
lwrist 8.96213
lhand -7.3941 52.9223
lfingers 7.12502
lthumb 18.4918 82.0634
rfemur -7.59679 2.79959 19.2372
rtibia 32.2438
rfoot -16.1093 -16.2112
rtoes 12.7317
lfemur -4.76206 -5.14373 -19.4711
ltibia 27.1037
lfoot -11.1792 7.25536
ltoes -17.3455
